<svg id="9d0f284a-3f19-40f2-81ef-99e19bf9cd3d" data-name="Calque 1" xmlns="http://www.w3.org/2000/svg" viewBox="0 0 99.96 100"><defs><style>.a06482b7-72db-4428-b33d-3b44c7469bc0{fill:#fff;}</style></defs><title>icone_xd</title><rect width="99.96" height="100"/><path d="M2,8V90.67H93.33V8ZM52.36,79.71c-2.57,0-5.13,0-7.69,0a2.37,2.37,0,0,1-2.5-1.59c-3.18-6.69-6.44-13.35-9.67-20-.21-.44-.44-.86-.82-1.61-.36.72-.62,1.21-.85,1.71-3.09,6.61-6.2,13.22-9.24,19.85A2.42,2.42,0,0,1,19,79.75c-2.28-.11-4.58,0-6.87,0-.51,0-1-.08-1.84-.13.38-.81.62-1.38.91-1.94,4.6-8.78,9.19-17.57,13.84-26.32a2.75,2.75,0,0,0,0-2.86c-4.48-8.79-8.9-17.6-13.33-26.41-.27-.53-.5-1.07-.88-1.86A17,17,0,0,1,12.5,20c2.45,0,4.91.06,7.36,0a2.38,2.38,0,0,1,2.61,1.62c3,6.58,6.15,13.11,9.24,19.67.16.34.34.67.62,1.25.32-.57.56-1,.75-1.35,3-6.52,6.11-13,9.09-19.57A2.4,2.4,0,0,1,44.8,20c2.66.1,5.32,0,8.31,0-.33.82-.51,1.4-.79,1.94Q45.66,34.78,38.94,47.59a2.55,2.55,0,0,0,0,2.7c4.78,9.06,9.49,18.15,14.22,27.23.3.57.56,1.16,1,2A16.32,16.32,0,0,1,52.36,79.71ZM89.21,77.5C82.72,80.41,76,81.47,69,79.66a17.24,17.24,0,0,1-12.4-11.51,28.72,28.72,0,0,1-.81-16.89c2.59-10.31,10.89-16.44,22-16.34h2.3V33c0-3.76.06-7.52,0-11.27,0-1.48.47-1.89,1.89-1.8a53.6,53.6,0,0,0,6.21,0c1.45-.09,1.83.39,1.82,1.83q-.07,16.74,0,33.49c0,7,.17,13.94.19,20.9A1.8,1.8,0,0,1,89.21,77.5Z"/><path class="a06482b7-72db-4428-b33d-3b44c7469bc0" d="M10.25,79.59c.38-.81.62-1.38.91-1.94,4.6-8.78,9.19-17.57,13.84-26.32a2.75,2.75,0,0,0,0-2.86c-4.48-8.79-8.9-17.6-13.33-26.41-.27-.53-.5-1.07-.88-1.86A17,17,0,0,1,12.5,20c2.45,0,4.91.06,7.36,0a2.38,2.38,0,0,1,2.61,1.62c3,6.58,6.15,13.11,9.24,19.67.16.34.34.67.62,1.25.32-.57.56-1,.75-1.35,3-6.52,6.11-13,9.09-19.57A2.4,2.4,0,0,1,44.8,20c2.66.1,5.32,0,8.31,0-.33.82-.51,1.4-.79,1.94Q45.66,34.78,38.94,47.59a2.55,2.55,0,0,0,0,2.7c4.78,9.06,9.49,18.15,14.22,27.23.3.57.56,1.16,1,2a16.32,16.32,0,0,1-1.74.2c-2.57,0-5.13,0-7.69,0a2.37,2.37,0,0,1-2.5-1.59c-3.18-6.69-6.44-13.35-9.67-20-.21-.44-.44-.86-.82-1.61-.36.72-.62,1.21-.85,1.71-3.09,6.61-6.2,13.22-9.24,19.85A2.42,2.42,0,0,1,19,79.75c-2.28-.11-4.58,0-6.87,0C11.58,79.71,11.06,79.64,10.25,79.59Z"/><path class="a06482b7-72db-4428-b33d-3b44c7469bc0" d="M80.05,34.92V33c0-3.76.06-7.52,0-11.27,0-1.48.47-1.89,1.89-1.8a53.6,53.6,0,0,0,6.21,0c1.45-.09,1.83.39,1.82,1.83q-.07,16.74,0,33.49c0,7,.17,13.94.19,20.9a1.8,1.8,0,0,1-.9,1.3C82.72,80.41,76,81.47,69,79.66a17.24,17.24,0,0,1-12.4-11.51,28.72,28.72,0,0,1-.81-16.89c2.59-10.31,10.89-16.44,22-16.34Zm0,22.6c0-4.08-.06-8.16,0-12.24,0-1.34-.48-1.78-1.72-2a11.13,11.13,0,0,0-12.09,7.16,20.36,20.36,0,0,0-.42,13.45c1.7,5.87,6.53,8.73,12.59,7.72,1.15-.19,1.67-.6,1.64-1.88C80,65.69,80.05,61.6,80.05,57.52Z"/><path d="M80.05,57.52c0,4.08,0,8.17,0,12.25,0,1.28-.49,1.69-1.64,1.88-6.06,1-10.89-1.85-12.59-7.72a20.36,20.36,0,0,1,.42-13.45,11.13,11.13,0,0,1,12.09-7.16c1.24.18,1.75.62,1.72,2C80,49.36,80.05,53.44,80.05,57.52Z"/></svg>