<svg id="a020fc9f-8ce9-406f-9c3e-23b178acc9ca" data-name="Calque 1" xmlns="http://www.w3.org/2000/svg" viewBox="0 0 99.96 100"><defs><style>.\32 317a920-39e1-4439-95ea-0bf4bc902209{fill:#fff;}</style></defs><title>icone_office</title><rect width="99.96" height="100"/><path d="M61.71,83.21a35.5,35.5,0,0,1-21.63.54L50.6,53.18l.14,0C54.39,63.15,58,73.14,61.71,83.21Z"/><path d="M34.5,81.44A34.26,34.26,0,0,1,17,62.26a34.34,34.34,0,0,1,.82-26.63Q26.14,58.54,34.5,81.44Z"/><path d="M81.17,33.11c9,16.23,3.32,37.7-13.2,47.12.07-.24.12-.44.19-.64,3.47-10,6.91-20.07,10.42-30.09A50.15,50.15,0,0,0,81,41.34,28.63,28.63,0,0,0,81.17,33.11Z"/><path class="2317a920-39e1-4439-95ea-0bf4bc902209" d="M59.76,80v-57c-1.2.26-2.34.49-3.47.76-8,1.86-15.94,3.74-23.91,5.58a1,1,0,0,0-.92,1.17q0,18.32,0,36.62a1.3,1.3,0,0,1-.92,1.43c-4.4,1.89-8.79,3.84-13.18,5.76-.24.11-.5.17-.84.29V73.7q0-23.48,0-46.95a1.12,1.12,0,0,1,.86-1.27Q29.74,21,42.07,16.37,50.5,13.25,59,10.17a2.32,2.32,0,0,1,1.37-.11c7.37,2.34,14.73,4.71,22.1,7.06.5.16.77.34.77,1q0,32.37,0,64.74c0,.06,0,.11,0,.28l-4,1.25L64.25,88.84c-1.2.36-2.39.78-3.61,1.06a3.28,3.28,0,0,1-1.76,0c-8.46-3-16.9-6.07-25.35-9.11L17.79,75.11a.77.77,0,0,1-.38-.25Z"/></svg>