<?xml version="1.0" encoding="utf-8"?>
<!-- Generator: Adobe Illustrator 22.0.1, SVG Export Plug-In . SVG Version: 6.00 Build 0)  -->
<svg version="1.1" id="Layer_1" xmlns="http://www.w3.org/2000/svg" xmlns:xlink="http://www.w3.org/1999/xlink" x="0px" y="0px"
	 viewBox="0 0 50 50" style="enable-background:new 0 0 50 50;" xml:space="preserve">
<g>
	<path d="M35,22.6c-3.2,0-3.7,3.2-3.7,3.2h6.9C38.1,25.8,38.2,22.6,35,22.6z"/>
	<path d="M19.4,25.8h-6.1v5.6h5.4c0.1,0,0.2,0,0.4,0c0.9,0,2.5-0.3,2.5-2.7C21.6,25.8,19.4,25.8,19.4,25.8z"/>
	<path d="M25.1,0.1c-13.8,0-25,11.2-25,25s11.2,25,25,25c13.8,0,25-11.2,25-25C50.1,11.3,38.9,0.1,25.1,0.1z M30.4,15.4H39V18h-8.6
		V15.4z M26,28.9c0,6.4-6.6,6.2-6.6,6.2h-6.1h-0.2H8.6V14.2h4.6h0.2h6.1c3.3,0,5.9,1.8,5.9,5.6s-3.2,4-3.2,4
		C26.3,23.7,26,28.9,26,28.9z M42.1,28.6H31.3c0,3.9,3.7,3.6,3.7,3.6c3.5,0,3.3-2.2,3.3-2.2H42c0,6-7.1,5.5-7.1,5.5c-8.6,0-8-8-8-8
		s0-8,8-8C43.3,19.5,42.1,28.6,42.1,28.6z"/>
	<path d="M20.9,20.1c0-2.2-1.5-2.2-1.5-2.2h-0.8h-5.3v4.7H19C20,22.6,20.9,22.3,20.9,20.1z"/>
</g>
</svg>
