<svg id="5c44a365-863a-4dc8-be40-95434100994d" data-name="Calque 1" xmlns="http://www.w3.org/2000/svg" viewBox="0 0 99.96 100"><defs><style>.e873e7a6-61d7-4296-9bca-389b34d03126{fill:#fff;}</style></defs><title>icone_wordpress</title><rect width="99.96" height="100"/><path d="M92.49,49.83A42.44,42.44,0,1,1,50.11,7.38,42.42,42.42,0,0,1,92.49,49.83Zm-42.41-40A39.94,39.94,0,1,0,90,49.83,39.94,39.94,0,0,0,50.08,9.87Z"/><path class="e873e7a6-61d7-4296-9bca-389b34d03126" d="M50.08,9.87a39.94,39.94,0,1,1-40,39.9A39.94,39.94,0,0,1,50.08,9.87ZM41.23,71.41c.11-.26.17-.36.2-.47q3.7-11.1,7.39-22.21a1.37,1.37,0,0,0,0-.85q-2.56-7.08-5.14-14.17a.67.67,0,0,0-.68-.5q-1.65-.14-3.3-.33a1.33,1.33,0,0,1-1.24-1.49c0-1,.78-1.5,2-1.44,3.39.17,6.78.38,10.18.39,2.62,0,5.25-.25,7.88-.4,1-.06,1.68.42,1.77,1.32a1.45,1.45,0,0,1-1.46,1.64c-1.26.15-2.52.25-3.87.38L67.71,71.14c.12-.35.21-.57.28-.78.5-1.58,1-3.15,1.49-4.74,1.27-4.24,2.62-8.46,3.78-12.73a16.66,16.66,0,0,0-.69-11.47c-.78-1.73-1.78-3.37-2.73-5a15.2,15.2,0,0,1-2.29-5.8A6.36,6.36,0,0,1,72,23.87a16.62,16.62,0,0,1,1.72-.27,35.15,35.15,0,0,0-53,6.7,11.88,11.88,0,0,0,2.13.09q4.56-.21,9.1-.45c1.07-.05,1.76.4,1.86,1.3s-.44,1.54-1.5,1.67c-1.26.14-2.52.24-3.83.37Zm20.48,11.8c-3.67-10.07-7.32-20.06-11-30.06l-.14,0L40.08,83.75A35.5,35.5,0,0,0,61.71,83.21ZM34.5,81.44q-8.37-22.9-16.72-45.81A34.34,34.34,0,0,0,17,62.26,34.26,34.26,0,0,0,34.5,81.44ZM81.17,33.11A28.63,28.63,0,0,1,81,41.34a50.15,50.15,0,0,1-2.37,8.16c-3.51,10-7,20.06-10.42,30.09-.07.2-.12.4-.19.64C84.49,70.81,90.14,49.34,81.17,33.11Z"/><path d="M41.23,71.41,28.42,33.28c1.31-.13,2.57-.23,3.83-.37,1.06-.13,1.6-.77,1.5-1.67s-.79-1.35-1.86-1.3q-4.55.24-9.1.45a11.88,11.88,0,0,1-2.13-.09,35.15,35.15,0,0,1,53-6.7,16.62,16.62,0,0,0-1.72.27,6.36,6.36,0,0,0-4.43,6.72,15.2,15.2,0,0,0,2.29,5.8c1,1.66,2,3.3,2.73,5a16.66,16.66,0,0,1,.69,11.47c-1.16,4.27-2.51,8.49-3.78,12.73-.48,1.59-1,3.16-1.49,4.74-.07.21-.16.43-.28.78L55,33.28c1.35-.13,2.61-.23,3.87-.38a1.45,1.45,0,0,0,1.46-1.64c-.09-.9-.74-1.38-1.77-1.32-2.63.15-5.26.41-7.88.4-3.4,0-6.79-.22-10.18-.39-1.26-.06-2,.4-2,1.44a1.33,1.33,0,0,0,1.24,1.49q1.65.19,3.3.33a.67.67,0,0,1,.68.5q2.56,7.09,5.14,14.17a1.37,1.37,0,0,1,0,.85q-3.68,11.12-7.39,22.21C41.4,71.05,41.34,71.15,41.23,71.41Z"/><path d="M61.71,83.21a35.5,35.5,0,0,1-21.63.54L50.6,53.18l.14,0C54.39,63.15,58,73.14,61.71,83.21Z"/><path d="M34.5,81.44A34.26,34.26,0,0,1,17,62.26a34.34,34.34,0,0,1,.82-26.63Q26.14,58.54,34.5,81.44Z"/><path d="M81.17,33.11c9,16.23,3.32,37.7-13.2,47.12.07-.24.12-.44.19-.64,3.47-10,6.91-20.07,10.42-30.09A50.15,50.15,0,0,0,81,41.34,28.63,28.63,0,0,0,81.17,33.11Z"/></svg>