<?xml version="1.0" encoding="utf-8"?>
<!-- Generator: Adobe Illustrator 22.0.1, SVG Export Plug-In . SVG Version: 6.00 Build 0)  -->
<svg version="1.1" id="_x35_f56949b-15b5-441e-a03f-0fc792485e64"
	 xmlns="http://www.w3.org/2000/svg" xmlns:xlink="http://www.w3.org/1999/xlink" x="0px" y="0px" viewBox="0 0 100 100.3"
	 style="enable-background:new 0 0 100 100.3;" xml:space="preserve">
<style type="text/css">
	.st0{fill:#FFFFFF;}
</style>
<title>icone_css</title>
<rect y="0.3" width="100" height="100"/>
<path class="st0" d="M43.3,10.6c2.5,0.1,4.9,0.8,7,2c3.2,2,4,4.6,3.5,8c-0.5,3.6-2.6,6.4-5.2,8.8c-2.9,2.5-6.5,4.1-10.3,4.7
	c-2.2,0.5-4.5,0.5-6.8,0.2c-1.5-0.3-2.9-1-4-2c-0.5-0.4-0.9-1-1.1-1.7c-0.1-0.3-0.2-0.6,0.1-0.8s0.5,0.1,0.7,0.3
	c1,1,2.3,1.7,3.7,1.9c1.4,0.2,2.8,0.2,4.2,0c4.4-0.6,8.5-2.5,11.7-5.6c1.8-1.6,3-3.7,3.4-6c0.4-1.9-0.6-3.8-2.4-4.5
	c-2-0.9-4.3-1.2-6.5-1c-6.3,0.4-11.9,3-17.2,6.3c-2.4,1.4-4.5,3.2-6.3,5.4c-1.2,1.4-2,3.1-2.3,5C15.2,34,16.4,36,18,37.7
	c1.7,1.6,3.5,3.1,5.4,4.5c0.9,0.7,1.7,1.4,2.5,2.2c0.3,0.4,0.6,0.3,1,0.1c2-1.1,4-2.2,6-3.3c0.3-0.2,0.6-0.4,0.8-0.7
	c1.2-1.6,2.8-2.8,4.6-3.4c2-0.7,3.3,0.3,3.4,2.4c0,0.5,0,1.1,0,1.6c0.1,0.1,0.2,0,0.3-0.1c0.5-0.2,1.1-0.1,1.5,0.3
	c0.4,0.3,0.5,0.8,0.3,1.2c-0.5,2-1.1,4-1.5,6c-0.2,0.8-0.3,1.7-0.2,2.5c0.3,0,0.4-0.3,0.5-0.5c2.2-4.4,4.2-9,6.1-13.5
	c0.2-0.6,0.4-1.1,0.5-1.7c0.1-0.3,0.3-0.6,0.6-0.7c0.9-0.3,1.9-0.4,2.9-0.2c0.8,0.2,1,0.5,0.7,1.2c-0.7,1.6-0.8,3.4-0.5,5.2
	c0.2,0.7,0.4,1.3,0.7,1.9c0.2,0.3,0.3,0.3,0.5,0c1.5-2.8,3.4-5.4,4.2-8.5c0.2-0.6,0.1-1.4,0.9-1.6c1.1-0.4,2.2-0.4,3.3-0.1
	c0.5,0.2,0.5,0.5,0.3,1c-0.5,1.3-0.8,2.6-0.7,4c0.2,1.4,0.6,2.8,1.4,4.1c0.2,0.4,0.5,0.3,0.7,0.1c2.1-0.9,4.4-1.3,6.7-1.2
	c3,0,5.9,1.5,7.6,4c0.5,0.8,0.8,1.7,1.1,2.6v1.8c-0.2,1.6-1.2,3-2.7,3.6c-0.2,0.1-0.3,0.2-0.5,0.2c-0.3,0-0.7,0-0.8-0.3
	s0-0.6,0.2-0.8c0.2-0.2,0.5-0.4,0.7-0.5c1.1-0.8,1.5-2.3,1.1-3.6c-0.5-1.6-1.8-2.8-3.4-3.4c-2.6-1-5.5-1.2-8.2-0.6
	c-1,0.2-1.2,0.4-0.9,1.5c0.6,2.3-0.4,4-2.1,5.4c-1,0.8-2.2,1.4-3.4,1.8c-0.4,0.1-0.7,0.2-1.1,0.2c-1,0.1-1.9-0.7-2-1.8
	c0-0.1,0-0.2,0-0.2c0-1.2,0.4-2.3,1-3.3c0.6-1,1.4-2,2.3-2.8c0.6-0.6,0.7-0.8,0.3-1.5c-0.5-0.9-0.8-1.8-1-2.7c0-0.2-0.1-0.4-0.3-0.6
	c-0.5,0.8-0.9,1.6-1.3,2.3s-1,1.8-1.7,2.7c-0.4,0.5-0.5,1.2-0.3,1.8c1.2,2.7,0,5.9-2.6,7.3c-1.4,0.9-3.1,1.3-4.8,1.3
	c-1.6,0-2.3-1.3-1.4-2.7s2-2.4,3-3.7c0.3-0.4,0.7-0.9,1.1-1.3c0.4-0.5,0.5-1.1,0.1-1.7c-0.7-1.3-1.2-2.6-1.4-4.1c0-0.2,0.1,0,0,0
	s0,0,0,0c-0.4,1.3-0.9,2.6-1.5,3.8c-1.2,2.8-2.6,5.5-4.2,8.1c-0.4,0.8-1,1.4-1.7,1.9c-0.8,0.7-2.1,0.7-2.8-0.1
	c-0.2-0.3-0.4-0.6-0.5-0.9c-0.2-0.8-0.3-1.7-0.3-2.6c-0.5,1.5-1.2,2.8-2.1,4.1c-1,1.2-2.8,1.3-4,0.3c-0.2-0.2-0.3-0.3-0.5-0.5
	c-0.9-1.4-1.5-3.1-1.6-4.8c-0.1-1.5,0-3.1,0.4-4.6c0-0.2,0.2-0.4,0-0.6s-0.4,0.1-0.6,0.2c-0.4,0.2-0.8,0.5-1.2,0.7
	c-0.7,0.4-0.8,0.6-0.5,1.3c0.9,3,0.6,6.2-0.8,9c-1.3,2.5-3.5,4.5-6.1,5.6c-0.8,0.2-1.7,0.4-2.5,0.4h-2.7c-0.2-0.1-0.5-0.1-0.7-0.1
	c-1.1,0-2.2-0.7-2.6-1.7c-1.2-2.4-0.9-5.2,0.7-7.4c1.2-1.6,2.7-3,4.4-4.1c1.4-1,2.9-1.9,4.4-2.7c0.7-0.4,0.7-0.6,0.1-1.1
	c-2.1-1.5-4.2-2.9-6.2-4.5c-2-1.5-3.6-3.2-5-5.3c-0.6-1-0.9-2.1-1-3.2v-1.9c0.2-3.2,2-5.6,4.1-7.9c2.9-3.1,6.3-5.6,10.1-7.5
	c2.8-1.5,5.8-2.8,8.8-3.8c2-0.6,4-1,6.1-1c0.1,0,0.2,0,0.3-0.1h0.8c0.7,0.1,1.4,0.1,2.1,0.1C42.9,10.5,43.1,10.5,43.3,10.6z"/>
<path d="M25.9,49.9c0,3.6-2.2,6.9-5.5,8.3c-0.5,0.2-1,0.3-1.6,0.4c-1.4,0.1-2.1-0.7-1.9-2.1c0.2-1.8,1.1-3.4,2.5-4.6
	c1.7-1.5,3.6-2.9,5.7-4c0.4-0.3,0.6-0.2,0.7,0.3C25.8,48.8,25.8,49.4,25.9,49.9z"/>
<path d="M34.2,49c0.1-2.8,1-5.6,2.8-7.8c0.4-0.6,0.9-1,1.5-1.3c0.3-0.2,0.7-0.4,1.1-0.2s0.2,0.7,0.2,1.1c-0.3,1.4-0.7,2.8-1.2,4.1
	c-0.7,1.8-1.3,3.6-2.2,5.4c-0.2,0.5-0.5,1-0.8,1.4c-0.4,0.5-0.8,0.5-1-0.1C34.3,50.7,34.2,49.8,34.2,49z"/>
<path d="M62.1,45.9c0.1,1.5-0.8,2.9-2.1,3.6c-0.2,0.1-0.5,0.4-0.7,0.1s0-0.5,0-0.7c0.4-1.3,1.1-2.5,2-3.5c0.2-0.2,0.3-0.4,0.5-0.3
	s0.2,0.3,0.2,0.5S62.1,46,62.1,45.9z"/>
<path d="M52.7,48c0,1.8-1.8,3.9-3.3,4C50.5,50.7,51.7,49.4,52.7,48z"/>
<path class="st0" d="M50.3,89.9l-1.5-0.6c-1-0.4-1.9-1.1-2.5-2c-0.7-1.1-1.2-2.3-1.3-3.5l-1.3-8.5c-0.2-1.3-0.1-2.5,0.2-3.8
	c0.3-1.1,1-2,1.8-2.7c0.9-0.7,2.1-1.2,3.3-1.4c1.1-0.2,2.3-0.1,3.3,0.3c1,0.4,1.8,1,2.5,1.9c0.7,1,1.2,2.2,1.4,3.4l-3,0.4
	c-0.1-0.7-0.4-1.3-0.8-1.9c-0.7-1-1.8-1.5-3-1.2c-0.6,0.1-1.2,0.3-1.7,0.7c-0.5,0.4-0.8,1-1,1.6c-0.2,0.7-0.2,1.4-0.1,2.2l1.3,8.5
	c0.1,0.7,0.3,1.4,0.7,2c0.3,0.6,0.8,1,1.3,1.3c0.6,0.2,1.2,0.3,1.8,0.2c1.1-0.1,2.1-0.9,2.5-2c0.2-0.7,0.3-1.4,0.2-2.1l3-0.4
	c0.1,1.2,0,2.5-0.4,3.7c-0.3,1-1,1.9-1.8,2.5c-0.9,0.7-2,1.1-3.1,1.2L50.3,89.9z"/>
<path class="st0" d="M66.2,87.6l-1.4-0.3c-0.9-0.2-1.8-0.6-2.5-1.2c-0.7-0.6-1.3-1.4-1.6-2.3l2.7-1.6c0.3,0.8,0.9,1.5,1.7,2
	c0.8,0.4,1.7,0.6,2.5,0.4c1-0.1,1.9-0.5,2.6-1.2c0.6-0.6,0.8-1.5,0.6-2.3l-0.1-1c-0.1-0.6-0.3-1.1-0.7-1.5c-0.4-0.4-0.9-0.6-1.4-0.8
	c-0.7-0.2-1.4-0.3-2.2-0.4l0,0h-0.1h-0.2C65,77.2,64,77,63,76.8c-0.8-0.3-1.6-0.8-2.2-1.4c-0.7-0.9-1.1-1.9-1.3-3l-0.1-0.6
	c-0.2-1.1-0.1-2.2,0.3-3.2c0.4-0.9,1-1.7,1.9-2.3c1-0.6,2.2-1,3.4-1.2c0.9-0.2,1.9-0.1,2.8,0.1c0.8,0.2,1.6,0.6,2.2,1.2
	c0.7,0.6,1.2,1.4,1.6,2.2l-2.6,1.7c-0.3-0.8-0.8-1.4-1.5-1.9c-0.6-0.4-1.3-0.6-2.1-0.4C64.6,68,63.7,68.4,63,69
	c-0.6,0.6-0.8,1.4-0.7,2.3l0.1,0.7c0.1,0.6,0.3,1.1,0.8,1.5c0.4,0.4,0.9,0.6,1.4,0.8c0.7,0.2,1.5,0.3,2.2,0.4H67h0.1h0.1h0.1
	c1,0.1,1.9,0.3,2.9,0.6c0.8,0.3,1.5,0.8,2.1,1.4c0.7,0.8,1.1,1.9,1.2,2.9l0.2,1c0.2,1.1,0.1,2.2-0.3,3.2c-0.4,1-1.1,1.8-2,2.3
	c-1.1,0.6-2.2,1-3.5,1.2L66.2,87.6z"/>
<path class="st0" d="M82.3,85.3l-1.4-0.3c-0.9-0.2-1.8-0.6-2.5-1.2c-0.7-0.6-1.3-1.4-1.6-2.3l2.7-1.6c0.3,0.8,0.9,1.5,1.7,2
	c0.8,0.4,1.6,0.6,2.5,0.4c1-0.1,1.9-0.5,2.6-1.2c0.6-0.6,0.8-1.5,0.6-2.3l-0.2-1c-0.1-0.6-0.3-1.1-0.7-1.5c-0.4-0.4-0.9-0.6-1.4-0.8
	c-0.7-0.2-1.4-0.3-2.2-0.4l0,0h-0.1h-0.2c-1.1-0.1-2.1-0.3-3.1-0.6c-0.8-0.3-1.6-0.8-2.2-1.4c-0.7-0.9-1.1-1.9-1.3-3l-0.1-0.6
	c-0.2-1.1-0.1-2.2,0.3-3.2c0.4-1,1.1-1.8,1.9-2.3c1-0.6,2.2-1,3.4-1.2c0.9-0.2,1.9-0.1,2.8,0.1c0.8,0.2,1.6,0.6,2.2,1.2
	c0.7,0.6,1.2,1.4,1.6,2.3l-2.6,1.6c-0.3-0.8-0.8-1.4-1.5-1.9c-0.6-0.4-1.3-0.6-2.1-0.4c-0.9,0.1-1.8,0.4-2.5,1.1
	c-0.6,0.6-0.8,1.4-0.6,2.3l0.1,0.7c0.1,0.6,0.3,1.1,0.8,1.5c0.4,0.4,0.9,0.6,1.4,0.8c0.8,0.2,1.5,0.3,2.3,0.4h0.1h0.1h0.1h0.1
	c1,0.1,1.9,0.3,2.9,0.6c0.8,0.3,1.5,0.8,2,1.4c0.7,0.8,1.1,1.9,1.2,3l0.2,1c0.2,1.1,0.1,2.2-0.3,3.2c-0.4,0.9-1.1,1.7-2,2.3
	c-1.1,0.6-2.2,1-3.4,1.2L82.3,85.3z"/>
<rect x="9.8" y="59.5" transform="matrix(0.9884 -0.152 0.152 0.9884 -8.6689 8.3059)" class="st0" width="80.3" height="2.7"/>
</svg>
