<?xml version="1.0" encoding="utf-8"?>
<!-- Generator: Adobe Illustrator 22.0.1, SVG Export Plug-In . SVG Version: 6.00 Build 0)  -->
<svg version="1.1" id="_x39_9ffecdc-e4db-4155-b75d-868498acd2be"
	 xmlns="http://www.w3.org/2000/svg" xmlns:xlink="http://www.w3.org/1999/xlink" x="0px" y="0px" viewBox="0 0 100 100.3"
	 style="enable-background:new 0 0 100 100.3;" xml:space="preserve">
<style type="text/css">
	.st0{fill:#FFFFFF;}
</style>
<title>icone_js</title>
<rect y="0.3" width="100" height="100"/>
<path class="st0" d="M59.6,81.3l7.1-4.1c0.7,0.9,1.3,1.7,2,2.4c2.3,2.5,6,3.5,9.3,2.4c1.7-0.3,3-1.6,3.3-3.3
	c0.3-1.8-0.6-3.6-2.3-4.3c-2-1.1-4.2-1.9-6.3-3c-2-0.9-3.8-2-5.6-3.2c-4.1-3.1-5.8-8.5-4.3-13.4c1.5-4.7,5.7-7.9,10.6-8
	c1.9-0.1,3.8,0,5.6,0.3c3.7,0.7,6.5,3,8.5,6.6l-6.8,4.3c-0.5-0.7-1-1.3-1.5-1.9c-1.4-1.5-3.5-2.2-5.4-1.6c-1.4,0.2-2.5,1.2-2.8,2.6
	c-0.5,1.4,0,3,1.1,3.9c1,0.8,2.1,1.4,3.2,1.9c1.8,0.9,3.8,1.6,5.6,2.5c1.8,0.9,3.5,2,5.1,3.3c4.7,4,5.4,11.9,1.6,16.7
	c-1.4,1.7-3.2,3-5.3,3.7c-5.2,1.9-11,1.6-15.9-0.9C63.4,86.7,61,84.3,59.6,81.3z"/>
<path class="st0" d="M28.7,82.3l7.1-4.3c0.5,0.8,0.9,1.4,1.4,2.1c1.3,2,3.7,2.9,5.9,2.2c1.5-0.3,2.7-1.6,2.8-3.2
	c0.1-0.9,0.2-1.8,0.2-2.7c0-9.2,0-18.3,0-27.5v-1.5h8.7c0,0.4,0,0.8,0,1.2c0,9.5,0,18.9,0,28.4c0,1.6-0.2,3.2-0.5,4.7
	c-0.8,4.1-4,7.3-8.1,8.1c-3.4,0.9-7.1,0.8-10.4-0.6C32.6,87.9,30.1,85.4,28.7,82.3z"/>
</svg>
