<svg id="b7b76dc6-4de4-40ed-af9c-4af6a58802f7" data-name="Calque 1" xmlns="http://www.w3.org/2000/svg" viewBox="0 0 99.96 100"><defs><style>.e9c1e354-ac7c-4d87-8852-4446290caf85{fill:#fff;}</style></defs><title>icone_id</title><rect width="99.96" height="100"/><path class="e9c1e354-ac7c-4d87-8852-4446290caf85" d="M76.61,47.9V67.62c0,2.31,0,4.62.22,6.92a1.14,1.14,0,0,1-.57,1.24c-5.54,3.08-11.43,4.79-17.81,4-7.86-.93-13-5.32-15.12-12.87S41.5,51.67,45.61,44.64c4.34-7.42,11-10.68,19.56-10a11.51,11.51,0,0,1,1.29.2c1,.2,1,.21,1-.82V21.43c0-1.19.07-1.25,1.24-1.26,2.23,0,4.45,0,6.68,0,1.2,0,1.24,0,1.24,1.24Z"/><path class="e9c1e354-ac7c-4d87-8852-4446290caf85" d="M23.35,49.71V21.83c0-1.29.08-1.37,1.39-1.38h6.61c1.32,0,1.39.07,1.39,1.37V77.66c0,1.28-.12,1.39-1.4,1.4H24.66c-1.2,0-1.31-.12-1.31-1.31Z"/><path d="M67.45,57.11V69.42c0,1.25,0,1.25-1.25,1.58a14.09,14.09,0,0,1-5.25.4,9.19,9.19,0,0,1-7.88-5.91,20,20,0,0,1,.39-16.61c2.52-5.29,7.5-7,12.84-5.76a1.31,1.31,0,0,1,1.17,1.52C67.42,48.8,67.45,53,67.45,57.11Z"/></svg>