<svg id="2db26bca-2cc1-4d03-a03b-eee18fbc1f0d" data-name="Calque 1" xmlns="http://www.w3.org/2000/svg" viewBox="0 0 99.96 100"><defs><style>.\33 bcce67e-8393-4c2d-a7c2-32b6a87c030b{fill:#fff;}</style></defs><title>icone_php</title><rect width="99.96" height="100"/><path class="3bcce67e-8393-4c2d-a7c2-32b6a87c030b" d="M74.21,43.45c-1.21,0-2.42,0-3.62,0-.53,0-.69.18-.77.65-.39,2.22-.82,4.42-1.2,6.64-.07.43-.22.59-.66.57q-3-.09-6-.14c-.52,0-.39-.31-.34-.58q.88-4.53,1.79-9C64.68,35,66,28.37,67.27,21.79c.1-.49.27-.66.78-.66,4.24,0,8.49,0,12.73,0a10.94,10.94,0,0,1,5.78,1.46A7,7,0,0,1,90,28.44c.36,5.57-1.62,10.08-6.39,13.16a11.5,11.5,0,0,1-6.51,1.85C76.11,43.44,75.16,43.45,74.21,43.45Z"/><path class="3bcce67e-8393-4c2d-a7c2-32b6a87c030b" d="M23.2,21.14h6a12.15,12.15,0,0,1,4.87,1,6.9,6.9,0,0,1,4.31,6c.53,5.69-1.43,10.31-6.3,13.5a11.48,11.48,0,0,1-6.5,1.88c-2.17,0-4.35,0-6.53,0-.45,0-.66.1-.75.6-.37,2.2-.8,4.39-1.18,6.58-.09.52-.28.71-.81.69-1.94-.08-3.88-.12-5.82-.15-.48,0-.52-.17-.44-.6q1.38-6.86,2.72-13.71c1-5,1.95-9.9,2.94-14.85.19-.93,0-.85,1-.85Z"/><path class="3bcce67e-8393-4c2d-a7c2-32b6a87c030b" d="M47.77,27c-.42,2.09-.83,4.19-1.25,6.28-.65,3.2-1.31,6.4-1.93,9.6-.11.55-.28.8-.9.79-1.87,0-3.73.07-5.59.12-.45,0-.6-.07-.49-.59.8-4,1.57-7.91,2.35-11.87q1.4-7,2.78-14.07c.2-1.05.41-2.1.6-3.16a.57.57,0,0,1,.66-.54c2,0,4,0,6,0,.4,0,.54.08.45.54-.47,2.41-.9,4.83-1.35,7.25.18.15.39.07.58.07,2.1,0,4.21,0,6.32,0a10.29,10.29,0,0,1,5.27,1.59A4.78,4.78,0,0,1,63.31,28c-.82,5.11-1.72,10.22-2.58,15.32-.06.36-.19.51-.56.51H53.59c-.4,0-.5-.14-.42-.54q.82-4.35,1.63-8.7c.3-1.61.62-3.21.89-4.83a6.91,6.91,0,0,0,0-1.64,1.1,1.1,0,0,0-.82-.94,2.33,2.33,0,0,0-1-.16c-.13-.11-.28-.06-.42-.06H48.18C48,26.93,47.88,26.87,47.77,27Z"/><path d="M76.56,26.56a17,17,0,0,1,3.36.19,3.24,3.24,0,0,1,2.86,3.85,13.25,13.25,0,0,1-.28,1.89c-.69,3.09-2.44,4.69-5.7,5.25a24.66,24.66,0,0,1-4.21,0c-1.06,0-1.07.18-.86-1,.56-3.18,1.13-6.37,1.66-9.55.07-.45.25-.58.67-.57C74.85,26.58,75.64,26.56,76.56,26.56Z"/><path d="M24.88,26.56a16.26,16.26,0,0,1,3.28.18c2.16.47,3.07,1.68,2.91,3.87a10.53,10.53,0,0,1-.95,3.81,5.41,5.41,0,0,1-3,2.75,9,9,0,0,1-4,.65c-.91-.07-1.83-.08-2.74-.1-.37,0-.52-.1-.45-.52q.91-5.07,1.77-10.15c.07-.4.24-.5.61-.49C23.11,26.58,23.91,26.56,24.88,26.56Z"/><path class="3bcce67e-8393-4c2d-a7c2-32b6a87c030b" d="M39.72,69.4V68.25H40c1.72,0,3.44,0,5.16,0a2.21,2.21,0,0,0,.79-.18.54.54,0,0,0,.35-.57c0-.19,0-.38,0-.61H46c-1.14,0-2.27,0-3.41,0a4,4,0,0,1-1.9-.39,3.47,3.47,0,0,1-.64-.44,1.17,1.17,0,0,1-.37-.9c0-1.26,0-2.51,0-3.77a.25.25,0,0,1,0-.07h1.66a2.28,2.28,0,0,1,0,.26v3.37a.78.78,0,0,0,.87.9h4v-.34c0-1.31,0-2.63,0-3.94,0-.22,0-.3.28-.29.4,0,.8,0,1.2,0,.19,0,.25,0,.25.24,0,1.83,0,3.67,0,5.5v.49a1.52,1.52,0,0,1-.76,1.36,3.71,3.71,0,0,1-1.38.47l-.19.06Z"/><path class="3bcce67e-8393-4c2d-a7c2-32b6a87c030b" d="M38.18,66.92h-1.7V60.07l-.06,0c0,.07-.07.14-.1.22-.86,1.91-1.73,3.82-2.58,5.75a1.5,1.5,0,0,1-1.55,1c-.17,0-.35,0-.52,0a1.41,1.41,0,0,1-1.13-.92L29.1,62.87l-1.17-2.62a.42.42,0,0,0-.15-.19v6.87H26.24c-.14,0-.2,0-.19-.18a.85.85,0,0,0,0-.16c0-2.13,0-4.26,0-6.4,0-1,.24-1.27,1.21-1.46a3.72,3.72,0,0,1,.88-.05,1.54,1.54,0,0,1,1.36,1L31.36,64l.6,1.39c0,.07.07.13.13.25l.11-.25c.83-1.86,1.68-3.71,2.48-5.58a1.81,1.81,0,0,1,2.23-1.13,3.83,3.83,0,0,1,.58.16.94.94,0,0,1,.7,1v7S38.18,66.87,38.18,66.92Z"/><path class="3bcce67e-8393-4c2d-a7c2-32b6a87c030b" d="M60,86.93,63.37,90l-.44,0c-1,0-2.08,0-3.11,0a1.3,1.3,0,0,1-.72-.29c-.68-.58-1.36-1.17-2-1.81a1.58,1.58,0,0,0-1.27-.46c-1.91.09-3.83.16-5.74.18a8.35,8.35,0,0,1-3.51-.71,3.38,3.38,0,0,1-2.24-3.29c0-3,0-6,0-9a3,3,0,0,1,1.5-2.62,6,6,0,0,1,3.05-1C51.48,71,54,71,56.59,71a8.5,8.5,0,0,1,3.29.68,3.48,3.48,0,0,1,2.25,3.44c0,2.75,0,5.51,0,8.27a3.22,3.22,0,0,1-2,3.37Zm-8.76-4.32c1.29,0,2.45,0,3.6,0a1.12,1.12,0,0,1,.68.26c.71.6,1.4,1.23,2.07,1.87a.41.41,0,0,0,.63,0,1.94,1.94,0,0,0,.69-1.62V75.49a1.84,1.84,0,0,0-1.54-2,4.41,4.41,0,0,0-1.08-.16c-1.86,0-3.72,0-5.57,0a4.9,4.9,0,0,0-1.51.31,1.66,1.66,0,0,0-1.11,1.67c0,2.61,0,5.21,0,7.82a2,2,0,0,0,1.86,2.11c1.33.11,2.67.06,4,.08,0,0,0,0,.11-.12Z"/><path class="3bcce67e-8393-4c2d-a7c2-32b6a87c030b" d="M36.32,71c1.74,0,3.47,0,5.21,0,.41,0,.54.13.51.53a8.42,8.42,0,0,0,0,1.23c0,.43-.1.57-.55.57q-4.83,0-9.64,0a7.35,7.35,0,0,0-1.4.18,1,1,0,0,0-.85,1,15.48,15.48,0,0,0,0,2.36,1.58,1.58,0,0,0,1.59,1.32c.59,0,1.19.07,1.78.07,1.37,0,2.74,0,4.11,0a6.73,6.73,0,0,1,3.71,1.24,2.44,2.44,0,0,1,1.12,2.21c0,.9,0,1.8-.07,2.69a2.5,2.5,0,0,1-1.11,1.82,6.73,6.73,0,0,1-4.09,1.36c-3.39,0-6.79,0-10.19,0-.37,0-.48-.13-.46-.48a11.63,11.63,0,0,0,0-1.32c0-.4.1-.52.51-.52h9.41a5.14,5.14,0,0,0,1.35-.21,1.54,1.54,0,0,0,1.14-1.62V82.34c0-1.28-.52-1.91-1.8-2-1.72-.08-3.44,0-5.16-.11a8.09,8.09,0,0,1-3.75-1,2.79,2.79,0,0,1-1.63-2.78c.07-.87,0-1.76.12-2.63a2.42,2.42,0,0,1,1.05-1.66,5.35,5.35,0,0,1,3-1.1c2,0,4,0,6.07,0Z"/><path class="3bcce67e-8393-4c2d-a7c2-32b6a87c030b" d="M64.49,77.52c0-2,0-4,0-6,0-.37.1-.51.49-.49.83,0,1.67,0,2.51,0,.41,0,.51.13.51.53,0,3.8,0,7.61,0,11.42,0,1.78.77,2.24,2.29,2.31s3.11,0,4.66,0,3.29,0,4.93,0c.39,0,.51.12.49.49a13.45,13.45,0,0,0,0,1.42c0,.29-.08.41-.39.4-3.15,0-6.3,0-9.46,0a9.5,9.5,0,0,1-3.56-.68,3.54,3.54,0,0,1-2.43-3.63Z"/></svg>