<svg id="88951220-1dd5-43e7-8461-b32ae5342a5b" data-name="Calque 1" xmlns="http://www.w3.org/2000/svg" viewBox="0 0 100 100.17"><defs><style>.ae7c08e8-efbd-41a7-a4d1-f9c059138392{fill:none;}.a1790de5-bc32-4a2d-a095-df5b8c3603e4{fill:#fff;}</style></defs><title>icone_git</title><path class="ae7c08e8-efbd-41a7-a4d1-f9c059138392" d="M39.4,16.5q3.18,3.18,6.39,6.34Q42.58,19.69,39.4,16.5Z"/><rect class="a1790de5-bc32-4a2d-a095-df5b8c3603e4" x="10" width="90" height="100"/><path d="M74.84,100.17,100,100V0H22.89c8.23,8.15,21.58,21.37,23,22.81a2.12,2.12,0,0,0,1.71.46,9.09,9.09,0,0,1,10.85,8,4,4,0,0,1,0,1.8c-.56,1.51,0,2.49,1.09,3.54C63,39.94,66.4,43.37,69.77,46.8a2.21,2.21,0,0,0,2.27.74A9,9,0,0,1,82.55,54.3,9.12,9.12,0,0,1,76.3,65a8.61,8.61,0,0,1-8.83-2.22A8.84,8.84,0,0,1,65,54.18a2.31,2.31,0,0,0-.21-1.75c-3.46-3.56-7-7-10.51-10.55a2.41,2.41,0,0,0-.53-.25c0,.58-.08,1.07-.08,1.55,0,9.22,0,18.44,0,27.67A2.8,2.8,0,0,0,55,73.46a8.84,8.84,0,0,1,3,10.15,9,9,0,0,1-17.18-.55,8.76,8.76,0,0,1,3.73-9.93A2.76,2.76,0,0,0,46,70.34q-.06-14.15,0-28.28a2.28,2.28,0,0,0-1.22-2.3,8.93,8.93,0,0,1-4-10,2.16,2.16,0,0,0-.3-1.71C37.38,24.91,19.84,7.35,12.5,0H0V100.17Z"/></svg>