<svg id="b6947a2f-af38-48cd-af20-95bd71c9dadd" data-name="Calque 1" xmlns="http://www.w3.org/2000/svg" viewBox="0 0 99.96 100"><defs><style>.\35 8637c07-a727-492b-93b3-a1e3e0d74c01{fill:#fff;}</style></defs><title>icone_ai</title><rect width="99.96" height="100"/><path d="M67.45,57.11V69.42c0,1.25,0,1.25-1.25,1.58a14.09,14.09,0,0,1-5.25.4,9.19,9.19,0,0,1-7.88-5.91,20,20,0,0,1,.39-16.61c2.52-5.29,7.5-7,12.84-5.76a1.31,1.31,0,0,1,1.17,1.52C67.42,48.8,67.45,53,67.45,57.11Z"/><path class="58637c07-a727-492b-93b3-a1e3e0d74c01" d="M38.58,21.48h5.1c.85,0,.89,0,1.14.87L56.16,60.84q2.64,8.94,5.27,17.87c.34,1.17.26,1.29-1,1.29H52.87c-1.14,0-1.18,0-1.49-1.15q-2-7.27-4-14.53c-.21-.78-.21-.78-1-.78-5.13,0-10.26,0-15.39,0a.84.84,0,0,0-1,.76Q28.1,71.66,26.13,79c-.23.9-.3,1-1.23,1H18c-1.12,0-1.25-.18-.93-1.27l8.31-29.09q3.26-11.41,6.53-22.81a20.86,20.86,0,0,0,.63-4.51c0-.77.11-.84.89-.84Z"/><path class="58637c07-a727-492b-93b3-a1e3e0d74c01" d="M69.56,58.32q0-10.4,0-20.8c0-.51.23-.71.7-.71h8.12c.51,0,.76.24.75.75v41.5c0,.77-.13.92-.88.93-2.58,0-5.17,0-7.75,0-.78,0-.93-.19-.93-1V58.32Z"/><path class="58637c07-a727-492b-93b3-a1e3e0d74c01" d="M74.68,30.79c-3.74,0-5.75-2-5.79-5.28A5.09,5.09,0,0,1,74.12,20,4.94,4.94,0,0,1,79,22.53a5.81,5.81,0,0,1-.14,6A4.76,4.76,0,0,1,74.68,30.79Z"/><path d="M38.67,30.09c.1.42.18.74.26,1.06C40.69,38.82,42.8,46.41,44.75,54c.23.89.23.89-.73.89H33.14c-.72,0-.74,0-.56-.72C34.26,48,36,41.71,37.41,35.4c.36-1.57.67-3.15,1-4.72A1,1,0,0,1,38.67,30.09Z"/></svg>